<svg class="lds-flask" width="100%" height="100%" xmlns="http://www.w3.org/2000/svg" xmlns:xlink="http://www.w3.org/1999/xlink" viewBox="0 0 100 100" preserveAspectRatio="xMidYMid"><defs>
<clipPath id="lds-flask-cpid-a144d7c66215" clipPathUnits="userSpaceOnUse">
<rect x="0" y="50" width="100" height="50"></rect>
</clipPath>
<pattern id="lds-flask-patid-c03576ebde0f" patternUnits="userSpaceOnUse" x="0" y="0" width="100" height="100">
<rect x="0" y="0" width="100" height="100" fill="#85a2b6"></rect><circle cx="57" cy="0" r="2" fill="#dce4eb" transform="translate(0 28.5252)">
<animateTransform attributeName="transform" type="translate" values="0 133;0 -33" keyTimes="0;1" dur="3s" begin="-2.34s" repeatCount="indefinite"></animateTransform>
</circle><circle cx="69" cy="0" r="2" fill="#dce4eb" transform="translate(0 105.121)">
<animateTransform attributeName="transform" type="translate" values="0 114;0 -14" keyTimes="0;1" dur="3s" begin="-0.66s" repeatCount="indefinite"></animateTransform>
</circle><circle cx="7" cy="0" r="2" fill="#dce4eb" transform="translate(0 114.333)">
<animateTransform attributeName="transform" type="translate" values="0 123;0 -23" keyTimes="0;1" dur="3s" begin="-0.63s" repeatCount="indefinite"></animateTransform>
</circle><circle cx="7" cy="0" r="3" fill="#dce4eb" transform="translate(0 70.2513)">
<animateTransform attributeName="transform" type="translate" values="0 122;0 -22" keyTimes="0;1" dur="3s" begin="-1.53s" repeatCount="indefinite"></animateTransform>
</circle><circle cx="33" cy="0" r="3" fill="#dce4eb" transform="translate(0 124.018)">
<animateTransform attributeName="transform" type="translate" values="0 127;0 -27" keyTimes="0;1" dur="3s" begin="-0.51s" repeatCount="indefinite"></animateTransform>
</circle><circle cx="78" cy="0" r="3" fill="#dce4eb" transform="translate(0 98.9237)">
<animateTransform attributeName="transform" type="translate" values="0 116;0 -16" keyTimes="0;1" dur="3s" begin="-0.84s" repeatCount="indefinite"></animateTransform>
</circle><circle cx="99" cy="0" r="2" fill="#dce4eb" transform="translate(0 -31.357)">
<animateTransform attributeName="transform" type="translate" values="0 147;0 -47" keyTimes="0;1" dur="3s" begin="-0.21s" repeatCount="indefinite"></animateTransform>
</circle><circle cx="45" cy="0" r="3" fill="#dce4eb" transform="translate(0 53.9617)">
<animateTransform attributeName="transform" type="translate" values="0 146;0 -46" keyTimes="0;1" dur="3s" begin="-1.89s" repeatCount="indefinite"></animateTransform>
</circle><circle cx="65" cy="0" r="2" fill="#dce4eb" transform="translate(0 -13.9188)">
<animateTransform attributeName="transform" type="translate" values="0 114;0 -14" keyTimes="0;1" dur="3s" begin="-0.45s" repeatCount="indefinite"></animateTransform>
</circle><circle cx="44" cy="0" r="3" fill="#dce4eb" transform="translate(0 -6.49251)">
<animateTransform attributeName="transform" type="translate" values="0 119;0 -19" keyTimes="0;1" dur="3s" begin="-0.18s" repeatCount="indefinite"></animateTransform>
</circle><circle cx="99" cy="0" r="2" fill="#dce4eb" transform="translate(0 41.3116)">
<animateTransform attributeName="transform" type="translate" values="0 138;0 -38" keyTimes="0;1" dur="3s" begin="-2.1s" repeatCount="indefinite"></animateTransform>
</circle><circle cx="53" cy="0" r="3" fill="#dce4eb" transform="translate(0 24.625)">
<animateTransform attributeName="transform" type="translate" values="0 117;0 -17" keyTimes="0;1" dur="3s" begin="-2.52s" repeatCount="indefinite"></animateTransform>
</circle><circle cx="76" cy="0" r="3" fill="#dce4eb" transform="translate(0 1.81003)">
<animateTransform attributeName="transform" type="translate" values="0 121;0 -21" keyTimes="0;1" dur="3s" begin="-2.97s" repeatCount="indefinite"></animateTransform>
</circle><circle cx="23" cy="0" r="3" fill="#dce4eb" transform="translate(0 5.28115)">
<animateTransform attributeName="transform" type="translate" values="0 114;0 -14" keyTimes="0;1" dur="3s" begin="-3s" repeatCount="indefinite"></animateTransform>
</circle><circle cx="47" cy="0" r="2" fill="#dce4eb" transform="translate(0 48.7824)">
<animateTransform attributeName="transform" type="translate" values="0 115;0 -15" keyTimes="0;1" dur="3s" begin="-1.98s" repeatCount="indefinite"></animateTransform>
</circle><circle cx="26" cy="0" r="2" fill="#dce4eb" transform="translate(0 22.589)">
<animateTransform attributeName="transform" type="translate" values="0 136;0 -36" keyTimes="0;1" dur="3s" begin="-2.43s" repeatCount="indefinite"></animateTransform>
</circle><circle cx="71" cy="0" r="3" fill="#dce4eb" transform="translate(0 -2.00138)">
<animateTransform attributeName="transform" type="translate" values="0 112;0 -12" keyTimes="0;1" dur="3s" begin="-0.21s" repeatCount="indefinite"></animateTransform>
</circle><circle cx="41" cy="0" r="3" fill="#dce4eb" transform="translate(0 112.029)">
<animateTransform attributeName="transform" type="translate" values="0 136;0 -36" keyTimes="0;1" dur="3s" begin="-0.87s" repeatCount="indefinite"></animateTransform>
</circle><circle cx="99" cy="0" r="2" fill="#dce4eb" transform="translate(0 81.2989)">
<animateTransform attributeName="transform" type="translate" values="0 128;0 -28" keyTimes="0;1" dur="3s" begin="-1.35s" repeatCount="indefinite"></animateTransform>
</circle><circle cx="34" cy="0" r="3" fill="#dce4eb" transform="translate(0 84.5875)">
<animateTransform attributeName="transform" type="translate" values="0 119;0 -19" keyTimes="0;1" dur="3s" begin="-1.2s" repeatCount="indefinite"></animateTransform>
</circle><circle cx="8" cy="0" r="2" fill="#dce4eb" transform="translate(0 57.7205)">
<animateTransform attributeName="transform" type="translate" values="0 145;0 -45" keyTimes="0;1" dur="3s" begin="-1.83s" repeatCount="indefinite"></animateTransform>
</circle><circle cx="84" cy="0" r="2" fill="#dce4eb" transform="translate(0 -7.92645)">
<animateTransform attributeName="transform" type="translate" values="0 108;0 -8" keyTimes="0;1" dur="3s" begin="-0.45s" repeatCount="indefinite"></animateTransform>
</circle><circle cx="24" cy="0" r="2" fill="#dce4eb" transform="translate(0 138.324)">
<animateTransform attributeName="transform" type="translate" values="0 148;0 -48" keyTimes="0;1" dur="3s" begin="-0.6s" repeatCount="indefinite"></animateTransform>
</circle><circle cx="77" cy="0" r="2" fill="#dce4eb" transform="translate(0 83.2367)">
<animateTransform attributeName="transform" type="translate" values="0 142;0 -42" keyTimes="0;1" dur="3s" begin="-1.41s" repeatCount="indefinite"></animateTransform>
</circle><circle cx="9" cy="0" r="3" fill="#dce4eb" transform="translate(0 30.7516)">
<animateTransform attributeName="transform" type="translate" values="0 138;0 -38" keyTimes="0;1" dur="3s" begin="-2.28s" repeatCount="indefinite"></animateTransform>
</circle><circle cx="42" cy="0" r="2" fill="#dce4eb" transform="translate(0 91.4792)">
<animateTransform attributeName="transform" type="translate" values="0 144;0 -44" keyTimes="0;1" dur="3s" begin="-1.29s" repeatCount="indefinite"></animateTransform>
</circle><circle cx="18" cy="0" r="2" fill="#dce4eb" transform="translate(0 -1.73729)">
<animateTransform attributeName="transform" type="translate" values="0 131;0 -31" keyTimes="0;1" dur="3s" begin="-2.91s" repeatCount="indefinite"></animateTransform>
</circle><circle cx="31" cy="0" r="3" fill="#dce4eb" transform="translate(0 41.3116)">
<animateTransform attributeName="transform" type="translate" values="0 138;0 -38" keyTimes="0;1" dur="3s" begin="-2.1s" repeatCount="indefinite"></animateTransform>
</circle><circle cx="68" cy="0" r="3" fill="#dce4eb" transform="translate(0 116.726)">
<animateTransform attributeName="transform" type="translate" values="0 118;0 -18" keyTimes="0;1" dur="3s" begin="-0.48s" repeatCount="indefinite"></animateTransform>
</circle><circle cx="87" cy="0" r="2" fill="#dce4eb" transform="translate(0 71.9055)">
<animateTransform attributeName="transform" type="translate" values="0 149;0 -49" keyTimes="0;1" dur="3s" begin="-1.62s" repeatCount="indefinite"></animateTransform>
</circle><circle cx="97" cy="0" r="3" fill="#dce4eb" transform="translate(0 33.1992)">
<animateTransform attributeName="transform" type="translate" values="0 144;0 -44" keyTimes="0;1" dur="3s" begin="-2.22s" repeatCount="indefinite"></animateTransform>
</circle><circle cx="9" cy="0" r="2" fill="#dce4eb" transform="translate(0 23.2402)">
<animateTransform attributeName="transform" type="translate" values="0 129;0 -29" keyTimes="0;1" dur="3s" begin="-2.46s" repeatCount="indefinite"></animateTransform>
</circle><circle cx="18" cy="0" r="3" fill="#dce4eb" transform="translate(0 61.0354)">
<animateTransform attributeName="transform" type="translate" values="0 141;0 -41" keyTimes="0;1" dur="3s" begin="-1.77s" repeatCount="indefinite"></animateTransform>
</circle><circle cx="77" cy="0" r="2" fill="#dce4eb" transform="translate(0 -3.01476)">
<animateTransform attributeName="transform" type="translate" values="0 133;0 -33" keyTimes="0;1" dur="3s" begin="-2.91s" repeatCount="indefinite"></animateTransform>
</circle><circle cx="95" cy="0" r="3" fill="#dce4eb" transform="translate(0 -19.5573)">
<animateTransform attributeName="transform" type="translate" values="0 131;0 -31" keyTimes="0;1" dur="3s" begin="-0.24s" repeatCount="indefinite"></animateTransform>
</circle><circle cx="10" cy="0" r="3" fill="#dce4eb" transform="translate(0 28.2754)">
<animateTransform attributeName="transform" type="translate" values="0 141;0 -41" keyTimes="0;1" dur="3s" begin="-2.31s" repeatCount="indefinite"></animateTransform>
</circle><circle cx="28" cy="0" r="2" fill="#dce4eb" transform="translate(0 34.1123)">
<animateTransform attributeName="transform" type="translate" values="0 107;0 -7" keyTimes="0;1" dur="3s" begin="-2.37s" repeatCount="indefinite"></animateTransform>
</circle><circle cx="4" cy="0" r="3" fill="#dce4eb" transform="translate(0 -13.8732)">
<animateTransform attributeName="transform" type="translate" values="0 150;0 -50" keyTimes="0;1" dur="3s" begin="-2.91s" repeatCount="indefinite"></animateTransform>
</circle><circle cx="35" cy="0" r="2" fill="#dce4eb" transform="translate(0 65.2675)">
<animateTransform attributeName="transform" type="translate" values="0 119;0 -19" keyTimes="0;1" dur="3s" begin="-1.62s" repeatCount="indefinite"></animateTransform>
</circle><circle cx="61" cy="0" r="2" fill="#dce4eb" transform="translate(0 82.5824)">
<animateTransform attributeName="transform" type="translate" values="0 115;0 -15" keyTimes="0;1" dur="3s" begin="-1.2s" repeatCount="indefinite"></animateTransform>
</circle><circle cx="92" cy="0" r="3" fill="#dce4eb" transform="translate(0 110.784)">
<animateTransform attributeName="transform" type="translate" values="0 132;0 -32" keyTimes="0;1" dur="3s" begin="-0.84s" repeatCount="indefinite"></animateTransform>
</circle><circle cx="31" cy="0" r="3" fill="#dce4eb" transform="translate(0 33.8093)">
<animateTransform attributeName="transform" type="translate" values="0 152;0 -52" keyTimes="0;1" dur="3s" begin="-2.19s" repeatCount="indefinite"></animateTransform>
</circle><circle cx="35" cy="0" r="3" fill="#dce4eb" transform="translate(0 30.723)">
<animateTransform attributeName="transform" type="translate" values="0 147;0 -47" keyTimes="0;1" dur="3s" begin="-2.25s" repeatCount="indefinite"></animateTransform>
</circle><circle cx="86" cy="0" r="2" fill="#dce4eb" transform="translate(0 117.253)">
<animateTransform attributeName="transform" type="translate" values="0 123;0 -23" keyTimes="0;1" dur="3s" begin="-0.57s" repeatCount="indefinite"></animateTransform>
</circle><circle cx="28" cy="0" r="2" fill="#dce4eb" transform="translate(0 63.6862)">
<animateTransform attributeName="transform" type="translate" values="0 118;0 -18" keyTimes="0;1" dur="3s" begin="-1.65s" repeatCount="indefinite"></animateTransform>
</circle><circle cx="12" cy="0" r="3" fill="#dce4eb" transform="translate(0 76.6189)">
<animateTransform attributeName="transform" type="translate" values="0 128;0 -28" keyTimes="0;1" dur="3s" begin="-1.44s" repeatCount="indefinite"></animateTransform>
</circle><circle cx="48" cy="0" r="2" fill="#dce4eb" transform="translate(0 32.151)">
<animateTransform attributeName="transform" type="translate" values="0 106;0 -6" keyTimes="0;1" dur="3s" begin="-2.43s" repeatCount="indefinite"></animateTransform>
</circle><circle cx="38" cy="0" r="2" fill="#dce4eb" transform="translate(0 94.7576)">
<animateTransform attributeName="transform" type="translate" values="0 127;0 -27" keyTimes="0;1" dur="3s" begin="-1.08s" repeatCount="indefinite"></animateTransform>
</circle><circle cx="82" cy="0" r="3" fill="#dce4eb" transform="translate(0 107.095)">
<animateTransform attributeName="transform" type="translate" values="0 125;0 -25" keyTimes="0;1" dur="3s" begin="-0.81s" repeatCount="indefinite"></animateTransform>
</circle><circle cx="43" cy="0" r="2" fill="#dce4eb" transform="translate(0 11.75)">
<animateTransform attributeName="transform" type="translate" values="0 121;0 -21" keyTimes="0;1" dur="3s" begin="-2.76s" repeatCount="indefinite"></animateTransform>
</circle>      </pattern></defs>

      <path fill="url(#lds-flask-patid-c03576ebde0f)" clip-path="url(#lds-flask-cpid-a144d7c66215)" d="M59,37.3V18.9c3-0.8,5.1-3.6,5.1-6.8C64.1,8.2,61,5,57.1,5H42.9c-3.9,0-7.1,3.2-7.1,7.1c0,3.2,2.2,6,5.1,6.8v18.4c-11.9,3.8-20.6,15-20.6,28.2C20.4,81.8,33.7,95,50,95s29.6-13.2,29.6-29.6C79.6,52.2,70.9,41.1,59,37.3z"></path>

      <path fill="none" stroke="#bbcedd" stroke-width="5" d="M59,37.3V18.9c3-0.8,5.1-3.6,5.1-6.8C64.1,8.2,61,5,57.1,5H42.9c-3.9,0-7.1,3.2-7.1,7.1c0,3.2,2.2,6,5.1,6.8v18.4c-11.9,3.8-20.6,15-20.6,28.2C20.4,81.8,33.7,95,50,95s29.6-13.2,29.6-29.6C79.6,52.2,70.9,41.1,59,37.3z"></path>
</svg>